<svg class="currency-icon currency-icon--pkr" width="24" height="24" viewBox="0 0 24 24" fill="none" xmlns="http://www.w3.org/2000/svg">
    <path fill-rule="evenodd" clip-rule="evenodd" d="M12 22C17.5228 22 22 17.5228 22 12C22 6.47715 17.5228 2 12 2C6.47715 2 2 6.47715 2 12C2 17.5228 6.47715 22 12 22ZM12 24C18.6274 24 24 18.6274 24 12C24 5.37258 18.6274 0 12 0C5.37258 0 0 5.37258 0 12C0 18.6274 5.37258 24 12 24Z" fill="currentColor"/>
    <path fill-rule="evenodd" clip-rule="evenodd" d="M5.5 7H8.5C9.29565 7 10.0587 7.31607 10.6213 7.87868C11.1839 8.44129 11.5 9.20435 11.5 10V11C11.4956 11.7401 11.2178 12.4524 10.72 13C11.2178 13.5476 11.4956 14.2599 11.5 15V16C11.5 16.2652 11.3946 16.5196 11.2071 16.7071C11.0196 16.8946 10.7652 17 10.5 17C10.2348 17 9.98043 16.8946 9.79289 16.7071C9.60536 16.5196 9.5 16.2652 9.5 16V15C9.5 14.7348 9.39464 14.4804 9.20711 14.2929C9.01957 14.1054 8.76522 14 8.5 14H6.5V16C6.5 16.2652 6.39464 16.5196 6.20711 16.7071C6.01957 16.8946 5.76522 17 5.5 17C5.23478 17 4.98043 16.8946 4.79289 16.7071C4.60536 16.5196 4.5 16.2652 4.5 16V8C4.5 7.73478 4.60536 7.48043 4.79289 7.29289C4.98043 7.10536 5.23478 7 5.5 7ZM9.20711 11.7071C9.39464 11.5196 9.5 11.2652 9.5 11V10C9.5 9.73478 9.39464 9.48043 9.20711 9.29289C9.01957 9.10536 8.76522 9 8.5 9H6.5V12H8.5C8.76522 12 9.01957 11.8946 9.20711 11.7071Z" fill="currentColor"/>
    <path fill-rule="evenodd" clip-rule="evenodd" d="M19.5 12C19.5 13.1046 18.6046 14 17.5 14H14.5C14.5 14.5523 14.9477 15 15.5 15H16.5C16.7642 15 17.0044 14.8976 17.1832 14.7302L18.9407 15.7449C18.3964 16.5048 17.506 17 16.5 17H15.5C13.8431 17 12.5 15.6569 12.5 14V12C12.5 10.3431 13.8431 9 15.5 9H16.5C18.1569 9 19.5 10.3431 19.5 12ZM17.5 12H14.5C14.5 11.4477 14.9477 11 15.5 11H16.5C17.0523 11 17.5 11.4477 17.5 12Z" fill="currentColor"/>
</svg>
