<svg class="svg-icon" viewBox="0 0 23 20" fill="none" xmlns="http://www.w3.org/2000/svg">
    <path d="M6.28516 2.30508C5.83203 2.05469 5.26172 2.21719 5.01172 2.67149C4.59375 3.42188 4.375 4.27344 4.375 5.13282C4.375 5.87618 4.53246 6.59532 4.84297 7.26641C5.00105 7.60927 5.34023 7.81056 5.69453 7.81056C5.82637 7.81056 5.96004 7.78248 6.08711 7.72388C6.55859 7.50782 6.76172 6.91798 6.54297 6.48048C6.34766 6.0586 6.25 5.60548 6.25 5.13282C6.25 4.58868 6.38855 4.05118 6.65039 3.57774C6.90234 3.12657 6.73828 2.55548 6.28516 2.30508ZM2.4457 0.0923102C1.80352 -0.168745 1.07734 0.143599 0.818359 0.782037C0.275273 2.12344 0 3.54258 0 4.96485C0 6.45704 0.275273 7.87892 0.818359 9.21876C1.01484 9.70704 1.4832 10 1.97773 10C2.1332 10 2.29258 9.97267 2.4457 9.91017C3.08594 9.64845 3.39492 8.92188 3.13555 8.28126C2.71367 7.23829 2.5 6.13673 2.5 5.00001C2.5 3.86485 2.71363 2.76173 3.13555 1.71915C3.39492 1.07969 3.08594 0.351099 2.4457 0.0923102ZM21.6797 0.782037C21.4215 0.141021 20.6941 -0.167573 20.0523 0.092193C19.4121 0.350982 19.1031 1.07969 19.3625 1.71915C19.7852 2.76173 20 3.86524 20 5.00001C20 6.13516 19.7864 7.23868 19.3645 8.2461C19.1055 8.92188 19.4141 9.64845 20.0547 9.91017C20.207 9.97267 20.3672 10 20.5234 10C21.018 10 21.4859 9.70462 21.6824 9.21876C22.1914 7.87892 22.5 6.45704 22.5 4.96485C22.5 3.54258 22.1914 2.12344 21.6797 0.782037ZM16.4141 2.27462C15.9441 2.49188 15.7391 3.04844 15.9563 3.51837C16.1523 3.94141 16.25 4.39454 16.25 4.86719C16.25 5.41173 16.1114 5.94884 15.8496 6.42227C15.5988 6.87501 15.7629 7.44649 16.2158 7.69649C16.3599 7.77583 16.5155 7.81368 16.6693 7.81368C16.9989 7.81368 17.3193 7.63907 17.4904 7.33048C17.9063 6.57813 18.125 5.72657 18.125 4.86719C18.125 4.12384 17.9675 3.40508 17.657 2.7336C17.4414 2.26133 16.8789 2.0586 16.4141 2.27462ZM11.7891 2.55665C10.1758 2.21797 8.75 3.44258 8.75 5.00001C8.75 5.92305 9.25586 6.72032 10 7.15313V18.7508C10 19.441 10.5598 20.0008 11.25 20.0008C11.9402 20.0008 12.5 19.441 12.5 18.7508V7.15235C13.4082 6.62345 13.9617 5.55235 13.673 4.37188C13.4531 3.47305 12.6953 2.74649 11.7891 2.55665Z"/>
</svg>
