<svg width="20" height="20" viewBox="0 0 20 20" fill="none" xmlns="http://www.w3.org/2000/svg">
<path d="M10 12.7C7.01766 12.7 4.6 10.2823 4.6 7.3V2.3C4.6 1.92754 4.6 1.74131 4.65428 1.59218C4.74527 1.34219 4.94219 1.14527 5.19218 1.05428C5.34131 1 5.52754 1 5.9 1H14.1C14.4725 1 14.6587 1 14.8078 1.05428C15.0578 1.14527 15.2547 1.34219 15.3457 1.59218C15.4 1.74131 15.4 1.92754 15.4 2.3V7.3C15.4 10.2823 12.9823 12.7 10 12.7ZM10 12.7V15.4M15.4 2.8H17.65C18.0693 2.8 18.279 2.8 18.4444 2.86851C18.6649 2.95985 18.8401 3.13506 18.9315 3.35558C19 3.52098 19 3.73065 19 4.15V4.6C19 5.43697 19 5.85546 18.908 6.19881C18.6583 7.13056 17.9306 7.85834 16.9988 8.108C16.6555 8.2 16.237 8.2 15.4 8.2M4.6 2.8H2.35C1.93065 2.8 1.72098 2.8 1.55558 2.86851C1.33506 2.95985 1.15985 3.13506 1.06851 3.35558C1 3.52098 1 3.73065 1 4.15V4.6C1 5.43697 1 5.85546 1.092 6.19881C1.34166 7.13056 2.06944 7.85834 3.00119 8.108C3.34454 8.2 3.76303 8.2 4.6 8.2M5.9 19H14.1C14.3209 19 14.5 18.8209 14.5 18.6C14.5 16.8327 13.0673 15.4 11.3 15.4H8.7C6.93269 15.4 5.5 16.8327 5.5 18.6C5.5 18.8209 5.67909 19 5.9 19Z" stroke="currentColor
" stroke-width="1.5" stroke-linecap="round" stroke-linejoin="round"/>
</svg>
