<svg width="26" height="30" viewBox="0 0 26 30" fill="none" xmlns="http://www.w3.org/2000/svg">
    <circle cx="20.0477" cy="15.5276" r="5.01499" fill="white"/>
    <path fill-rule="evenodd" clip-rule="evenodd" d="M8.1894 23.2606V28.2474L0.949846 30V12.3914C0.937145 12.1964 0.937195 11.9997 0.937195 11.8016C0.937195 5.28639 6.23345 -0.00192794 12.7617 5.27266e-07C17.9818 0.00354966 22.4146 3.40108 23.9768 8.10033C24.0149 8.2243 23.9766 8.359 23.8877 8.44023C23.7861 8.52462 23.6466 8.54139 23.5323 8.48174C22.5035 7.982 21.3779 7.68026 20.1586 7.68181C18.7488 7.68115 17.4104 8.07623 16.2801 8.72978C15.4291 7.75943 14.1844 7.14411 12.7999 7.14264C10.2598 7.14072 8.1894 9.20528 8.1894 11.7462C8.1894 11.7613 8.1894 11.775 8.1894 11.7888V16.4276L12.3681 15.3898C12.3808 15.3866 12.3934 15.3876 12.3934 15.3931C12.4061 15.3968 12.4063 15.405 12.4063 15.4133C12.4063 15.416 12.4063 15.4202 12.4063 15.4229C12.4063 17.6474 13.346 19.6536 14.8574 21.0638C14.9463 21.1491 14.9845 21.2772 14.9591 21.3963C14.921 21.5185 14.8321 21.6108 14.7051 21.6423C13.4477 21.9546 10.5518 22.6739 8.1894 23.2606Z" fill="white"/>
    <rect x="14.9161" y="10.4777" width="10.1349" height="10.1349" rx="5.06747" fill="#1BFF67"/>
</svg>
