<svg width="20" height="22" viewBox="0 0 20 22" fill="none" xmlns="http://www.w3.org/2000/svg">
    <path d="M10.3203 0.335949C10.6124 0.00754732 11.0848 -0.0913209 11.4844 0.0918081C11.8835 0.275098 12.1167 0.697419 12.0586 1.13282L11.1426 8.00001H17.7832C18.0548 8.00001 18.3232 7.99933 18.5391 8.01759C18.6834 8.02984 18.9216 8.05698 19.1641 8.16993L19.4062 8.31446L19.5371 8.42579C19.8292 8.7045 20.0068 9.09674 20 9.52345C19.9932 9.94587 19.7735 10.261 19.6621 10.4121C19.5348 10.5848 19.3581 10.7826 19.1855 10.9766L9.67969 21.6641C9.3876 21.9925 8.91516 22.0913 8.51562 21.9082C8.11649 21.7249 7.88332 21.3026 7.94141 20.8672L8.85742 14H2.2168C1.9452 14 1.67684 14.0007 1.46094 13.9824C1.26841 13.9661 0.908305 13.9237 0.59375 13.6856C0.22486 13.4059 -0.00777594 12.9637 7.75617e-09 12.4766L0.0117188 12.3223C0.0598374 11.9773 0.240464 11.7201 0.337891 11.5879C0.46517 11.4153 0.641898 11.2175 0.814453 11.0234L10.3203 0.335949ZM2.62109 12H10C10.2883 12 10.5621 12.1249 10.752 12.3418C10.9418 12.5587 11.0303 12.8471 10.9922 13.1328L10.3555 17.8945L17.3789 10H10C9.71172 10 9.43793 9.87512 9.24805 9.65821C9.05819 9.44132 8.96969 9.15292 9.00781 8.8672L9.64258 4.10353L2.62109 12Z" fill="currentColor"/>
</svg>
