<svg width="20" height="20" viewBox="0 0 20 20" fill="none" xmlns="http://www.w3.org/2000/svg">
<path d="M10 20C11.9778 20 13.9112 19.4135 15.5557 18.3147C17.2002 17.2159 18.4819 15.6541 19.2388 13.8268C19.9957 11.9996 20.1937 9.98891 19.8079 8.0491C19.422 6.10929 18.4696 4.32746 17.0711 2.92894C15.6725 1.53041 13.8907 0.578004 11.9509 0.192152C10.0111 -0.193701 8.00043 0.00433284 6.17317 0.761209C4.3459 1.51809 2.78412 2.79981 1.6853 4.4443C0.58649 6.08879 0 8.02219 0 10C0.00294858 12.6513 1.05746 15.1931 2.93219 17.0678C4.80691 18.9425 7.34874 19.9971 10 20Z" fill="#D1281F"/>
<path d="M7.16786 13.8324L12.828 13.8287C13.0932 13.8277 13.3474 13.7218 13.535 13.5341C13.7227 13.3465 13.8286 13.0923 13.8296 12.8271L13.8333 7.16702C13.831 6.90324 13.7247 6.65115 13.5375 6.46559C13.3502 6.28003 13.0972 6.17602 12.8334 6.17619C12.5696 6.17636 12.3164 6.2807 12.1289 6.4665C11.9414 6.65231 11.8348 6.90454 11.8322 7.16832L11.8301 10.4132L7.88023 6.46333C7.6927 6.27579 7.43825 6.17053 7.17286 6.17071C6.90747 6.17088 6.65288 6.27647 6.4651 6.46425C6.27732 6.65203 6.17173 6.90662 6.17155 7.17201C6.17138 7.4374 6.27664 7.69185 6.46418 7.87939L10.414 11.8292L7.16917 11.8314C6.90539 11.834 6.65315 11.9406 6.46735 12.1281C6.28155 12.3156 6.17721 12.5688 6.17704 12.8325C6.17686 13.0963 6.28087 13.3494 6.46643 13.5366C6.65199 13.7239 6.90409 13.8302 7.16786 13.8324Z" fill="white"/>
</svg>
