<svg width="20" height="20" viewBox="0 0 20 20" fill="none" xmlns="http://www.w3.org/2000/svg">
<path d="M10 0C8.02219 0 6.08879 0.58649 4.4443 1.6853C2.79981 2.78412 1.51809 4.3459 0.761209 6.17317C0.00433284 8.00043 -0.193701 10.0111 0.192152 11.9509C0.578004 13.8907 1.53041 15.6725 2.92894 17.0711C4.32746 18.4696 6.10929 19.422 8.0491 19.8079C9.98891 20.1937 11.9996 19.9957 13.8268 19.2388C15.6541 18.4819 17.2159 17.2002 18.3147 15.5557C19.4135 13.9112 20 11.9778 20 10C19.9971 7.34874 18.9425 4.80691 17.0678 2.93219C15.1931 1.05746 12.6513 0.00294858 10 0Z" fill="#248F32"/>
<path d="M13.8319 12.832L13.8288 7.17244C13.8278 6.90725 13.722 6.65311 13.5343 6.46549C13.3467 6.27786 13.0926 6.172 12.8274 6.17101L7.16786 6.16792C6.90411 6.17016 6.65203 6.27647 6.46647 6.46372C6.28091 6.65097 6.17688 6.90401 6.17703 7.16777C6.17717 7.43154 6.28148 7.68469 6.46725 7.87214C6.65301 8.0596 6.90521 8.16619 7.16897 8.16873L10.4135 8.17057L6.46366 12.1204C6.27612 12.308 6.17085 12.5624 6.17099 12.8278C6.17114 13.0931 6.2767 13.3477 6.46444 13.5354C6.65218 13.7232 6.90674 13.8287 7.1721 13.8289C7.43746 13.829 7.6919 13.7237 7.87944 13.5362L11.8293 9.58635L11.8311 12.8309C11.8329 13.0952 11.9392 13.3481 12.1267 13.5344C12.3143 13.7208 12.5678 13.8255 12.8321 13.8256C13.0963 13.8258 13.3498 13.7214 13.5371 13.5352C13.7244 13.349 13.8304 13.0962 13.8319 12.832Z" fill="white"/>
</svg>
