<svg xmlns="http://www.w3.org/2000/svg">
    <symbol id="icon-gift" viewBox="0 0 9 8">
        <path fill-rule="evenodd" clip-rule="evenodd" d="M3.88586 1.78829H2.41184C2.32532 1.6759 2.26197 1.51835 2.24856 1.36533C2.23524 1.21348 2.27269 1.10782 2.33043 1.04321C2.38433 0.982872 2.51652 0.890455 2.83689 0.890455C3.12945 0.890455 3.42985 1.0918 3.68484 1.44901C3.76533 1.56177 3.8321 1.67748 3.88586 1.78829ZM1.36987 1.44381C1.38007 1.56028 1.403 1.67617 1.437 1.78829H1.08808C0.763293 1.78829 0.5 2.05407 0.5 2.38193V2.90557C0.5 3.23342 0.763293 3.4992 1.08808 3.4992H7.91192C8.23666 3.4992 8.5 3.23342 8.5 2.90557V2.38193C8.5 2.05407 8.23666 1.78829 7.91192 1.78829H7.56295C7.597 1.67617 7.61988 1.56028 7.63011 1.44381C7.65887 1.11599 7.5883 0.741975 7.3246 0.446837C7.05708 0.147414 6.65442 0 6.16309 0C5.45777 0 4.92658 0.470185 4.59947 0.92843C4.56504 0.976669 4.53183 1.02618 4.49999 1.07664C4.46814 1.02618 4.43494 0.976669 4.40051 0.92843C4.07339 0.470185 3.54221 0 2.83689 0C2.34555 0 1.94288 0.147414 1.67536 0.446837C1.41167 0.741975 1.34113 1.11599 1.36987 1.44381ZM5.11412 1.78829H6.58815C6.67465 1.6759 6.73799 1.51835 6.7514 1.36533C6.76475 1.21348 6.72729 1.10782 6.66954 1.04321C6.61567 0.982872 6.48347 0.890455 6.16309 0.890455C5.87052 0.890455 5.57013 1.0918 5.31514 1.44901C5.23465 1.56177 5.16787 1.67748 5.11412 1.78829ZM1.08808 4.24121H4.13244V8H1.64989C1.3251 8 1.0618 7.73423 1.0618 7.40636V4.24095C1.07054 4.24113 1.07931 4.24121 1.08808 4.24121ZM7.34995 8H4.86754V4.24121H7.91192C7.92062 4.24121 7.92933 4.24113 7.93803 4.24095V7.40636C7.93803 7.73423 7.67475 8 7.34995 8Z" fill="currentColor"/>
    </symbol>
</svg>
