<svg class="svg-icon market-icon" xmlns="http://www.w3.org/2000/svg" viewBox="0 0 505.54 446.78"><path d="M505.54 80.51v1.17c0 3.07-1.76 10.62-1.95 11.38-15.18 60.96-30.32 121.93-45.5 182.89-2.51 10.08-7.41 13.84-17.71 13.84-84.12 0-168.25 0-252.37.01-1.83 0-3.68.1-5.49.07-2.97-.05-3.22 1.11-2.56 3.64 2.55 9.79 5.2 19.57 7.25 29.47.82 3.95 2.35 4.9 6.18 4.89 68.3-.12 136.6-.08 204.9-.09 3.34 0 6.62.23 9.93.78 27.15 4.55 46.87 25.28 50.1 52.82 2.96 25.23-11.08 50.47-35.27 60.91-4.88 2.31-9.61 3.5-18.76 4.33-1.22.11-2.46.17-3.68.17h-1.63c-4.66 0-9.3-.57-13.83-1.68-31.29-7.94-50.44-37.6-44.51-69.16.27-1.44.61-2.87.97-4.3.46-1.86-.95-3.66-2.86-3.66h-78.57c-1.88 0-3.25 1.76-2.81 3.58.08.32.16.64.24.97 7.2 29.25-7.39 58.43-35.12 69.79-3.44 1.41-7.05 2.46-10.71 3.3-7.25 1.66-21.36 1.16-29.66-1.25-35.92-9.25-55.23-57.37-29.58-92.72 1.69-2.33 1.69-4.28 1.04-6.86-25.12-100.13-50.19-200.26-75.19-300.4-.82-3.26-2.12-4.43-5.68-4.36-24.09.41-31.93.42-53.4.18C9.77 40.11 0 35 0 20.7 0 6 9.43-.08 19.54 0c26.31.21 47.57.18 73.88.08 13.83-.05 15.22 3.02 17.63 14.81 2.91 14.28 6.97 28.32 9.91 42.59.85 4.13 2.44 4.82 6.06 4.8 22.14-.15 44.29-.13 66.43-.13 95.9.01 191.8.02 287.71.08 3.81 0 7.68.2 11.42.86 3.31.59 5.81 2.17 7.85 4.27 3.39 3.49 5.11 8.28 5.11 13.15zm-162.91 22.24v.02c-7.99 0-13.94.04-21.92-.11-2.56-.05-4.92.87-4.9 5.28.17 15.47-.33 29.02-.35 44.5 0 2.34.29 3.51 3.18 3.47 13.81-.17 27.62-.11 41.43-.04 2.21.01 3.21-.49 3.49-2.93 1.82-15.51 3.76-31.01 5.81-46.5.38-2.86-.3-3.82-3.27-3.75-7.82.18-15.65.06-23.47.06zm117.82 3.94c.5-1.98-1-3.91-3.04-3.91-15.44.02-30.57.11-45.7-.1-4.41-.06-4.44 1.79-5.14 7.43-2.11 16.94-3.93 31.06-5.34 41.09-.55 3.93-.65 4.72 1.85 4.71 14.14-.05 28.29-.05 42.43 0 1.95.01 2.72-.53 3.23-2.63 3.76-15.45 7.71-30.84 11.71-46.59zm-300.34-3.92v-.02c-7.82 0-15.65.14-23.46-.07-3.08-.08-3.66.86-2.94 3.65 3.98 15.41 7.93 30.83 11.69 46.29.66 2.72 1.48 3.24 5.02 3.23 13.17-.04 25.71-.04 39.33.03 3.45.02 3.93-.59 3.59-3.16-2.02-15.48-4.01-30.97-5.79-46.49-.32-2.8-1.27-3.59-3.99-3.53-7.81.18-15.63.07-23.45.07zm91.91.01v-.03c-7.65 0-15.31.15-22.96-.07-3.09-.09-3.98.66-3.56 3.82 2.04 15.3 3.94 30.62 5.72 45.95.31 2.67 1.15 3.5 3.9 3.46 13.31-.16 26.62-.13 39.93-.02 2.61.02 3.76-.39 3.73-3.43-.14-15.47-.56-29.06-.64-44.77-.01-4.5-1.98-5.08-4.59-5.03-7.82.17-13.71.12-21.53.12zm150.69 146.96c6.24.16 12.5-.2 18.73.12 2.59.13 3.46-.94 4.01-3.18 3.89-15.75 7.81-31.49 11.83-47.2.54-2.1-.79-3.79-2.95-3.76-11.49.15-22.99.3-34.48-.07-3.86-.12-4.75 1.38-5.16 4.6-2.43 15.88-4.94 30.63-7.07 45.95-.41 2.96 1.48 3.75 4.25 3.64 3.62-.13 7.23-.2 10.84-.1zm-89.17-2.96c-.03 2.68 2.59 3 6.88 3h22.71c6.8 0 8.21.66 8.63-2.96 1.84-15.83 3.82-31.65 5.9-47.45.49-3.75-.34-3.57-7.73-3.57h-27.89c-6.12 0-7.45.4-7.55 3.82-.77 26.5-.71 31.58-.95 47.16zm-154.5-51c-3.25-.06-2.28 2.26-2.2 2.57 4.06 16.73 7.88 32.24 11.9 48.98.58 2.41 2.13 2.47 4.09 2.46 9.66-.06 19.32-.15 28.97.04 3.1.06 4.91-.92 4.45-3.72-2.12-12.85-5.34-32.59-7.46-47.4-.25-1.78-.36-3.01-2.79-2.99-13.13.13-23.85.06-36.96.06zm120.34 3.45c-.05-3.39-1.63-3.43-7.36-3.43h-30.54c-5.14 0-5.08.77-4.74 3.45 1.97 15.65 3.96 31.3 5.72 46.97.34 2.99 1.31 3.58 4.63 3.57 9.28-.01 18.45-.01 27.79.02 3.03.01 5.88-.66 5.82-3.37-.14-7.81-.94-23.55-1.32-47.21zm-79.47 168.49c-10.94.04-19.51 8.72-19.47 19.7.05 10.92 8.73 19.48 19.73 19.43 10.94-.04 19.51-8.72 19.47-19.69-.05-10.93-8.73-19.49-19.73-19.44zm199.21 0c-10.98-.03-19.65 8.56-19.68 19.49-.03 10.96 8.57 19.62 19.52 19.64 10.98.03 19.65-8.56 19.68-19.49.03-10.96-8.57-19.62-19.52-19.64z"/></svg>