<svg class="svg-icon" viewBox="0 0 18 18" fill="none" xmlns="http://www.w3.org/2000/svg">
<path fill-rule="evenodd" clip-rule="evenodd" d="M9 18C13.9706 18 18 13.9706 18 9C18 4.02944 13.9706 0 9 0C4.02944 0 0 4.02944 0 9C0 13.9706 4.02944 18 9 18ZM4 5.46154C4 5.20577 4.21573 5 4.48387 5H5.45161C5.71976 5 5.93548 5.20577 5.93548 5.46154V6.38462C5.93548 6.64038 5.71976 6.84615 5.45161 6.84615H4.48387C4.21573 6.84615 4 6.64038 4 6.38462V5.46154ZM6.90323 5.92308C6.90323 5.58269 7.19153 5.30769 7.54839 5.30769H13.3548C13.7117 5.30769 14 5.58269 14 5.92308C14 6.26346 13.7117 6.53846 13.3548 6.53846H7.54839C7.19153 6.53846 6.90323 6.26346 6.90323 5.92308ZM6.90323 9C6.90323 8.65962 7.19153 8.38462 7.54839 8.38462H13.3548C13.7117 8.38462 14 8.65962 14 9C14 9.34038 13.7117 9.61539 13.3548 9.61539H7.54839C7.19153 9.61539 6.90323 9.34038 6.90323 9ZM6.90323 12.0769C6.90323 11.7365 7.19153 11.4615 7.54839 11.4615H13.3548C13.7117 11.4615 14 11.7365 14 12.0769C14 12.4173 13.7117 12.6923 13.3548 12.6923H7.54839C7.19153 12.6923 6.90323 12.4173 6.90323 12.0769ZM4.48387 9.92308C4.21573 9.92308 4 9.71731 4 9.46154V8.53846C4 8.28269 4.21573 8.07692 4.48387 8.07692H5.45161C5.71976 8.07692 5.93548 8.28269 5.93548 8.53846V9.46154C5.93548 9.71731 5.71976 9.92308 5.45161 9.92308H4.48387ZM4 11.6154C4 11.3596 4.21573 11.1538 4.48387 11.1538H5.45161C5.71976 11.1538 5.93548 11.3596 5.93548 11.6154V12.5385C5.93548 12.7942 5.71976 13 5.45161 13H4.48387C4.21573 13 4 12.7942 4 12.5385V11.6154Z"/>
</svg>
