<svg width="33" height="45" viewBox="0 0 33 45" fill="none" xmlns="http://www.w3.org/2000/svg">
<g opacity="0.8" clip-path="url(#clip0_301_844)">
<path d="M13.4987 10.3493L19.2068 15.999L32.5296 15.999L32.5296 16.9147L18.8236 16.9147L12.8446 10.9967L13.4987 10.3493Z" fill="url(#paint0_linear_301_844)"/>
<path d="M14.463 9.51674C13.7838 8.84442 12.6827 8.84442 12.0041 9.51674C11.3248 10.1891 11.3248 11.2788 12.0041 11.9506C12.6834 12.6223 13.7844 12.6229 14.463 11.9506C15.1423 11.2782 15.1423 10.1885 14.463 9.51674Z" fill="url(#paint1_linear_301_844)"/>
<path d="M1.65217 15.2557L9.57827 15.2557L14.303 19.9328L32.5296 19.9328L32.5296 20.8479L13.9199 20.8479L9.19511 16.1714L1.65217 16.1714L1.65217 15.2557Z" fill="url(#paint2_linear_301_844)"/>
<path d="M1.7386 13.9924C0.778571 13.9924 5.837e-07 14.763 5.62932e-07 15.7132C5.42164e-07 16.6635 0.778571 17.4341 1.7386 17.4341C2.69864 17.4341 3.47721 16.6635 3.47721 15.7132C3.47721 14.763 2.69864 13.9924 1.7386 13.9924Z" fill="url(#paint3_linear_301_844)"/>
<path d="M10.8681 1.76019L14.883 5.73404L20.7639 5.73404L27.1611 12.0658L32.5296 12.0658L32.5296 12.9809L26.7779 12.9809L20.3808 6.64968L14.4998 6.64968L10.214 2.40764L10.8681 1.76019Z" fill="url(#paint4_linear_301_844)"/>
<path d="M10.595 4.27354L12.7538 2.13681L10.595 7.8156e-05L8.43624 2.13681L10.595 4.27354Z" fill="url(#paint5_linear_301_844)"/>
<path d="M23.9365 23.4959L32.5296 23.4959L32.5296 24.4109L24.3196 24.4109L21.5302 27.1718L13.7255 27.1718L13.7255 26.2561L21.1471 26.2561L23.9365 23.4959Z" fill="url(#paint6_linear_301_844)"/>
<path d="M12.2757 28.2252L15.3287 28.2252L15.3287 25.2034L12.2757 25.2034L12.2757 28.2252Z" fill="url(#paint7_linear_301_844)"/>
<path d="M27.196 27.4291L32.5296 27.4291L32.5296 28.3447L27.5792 28.3447L19.6022 36.2402L19.6022 42.7231L18.6777 42.7231L18.6777 35.861L27.196 27.4291Z" fill="url(#paint8_linear_301_844)"/>
<path d="M17.4014 42.6376C17.4014 43.5878 18.1799 44.3584 19.14 44.3584C20.1 44.3584 20.8786 43.5878 20.8786 42.6376C20.8786 41.6873 20.1 40.9167 19.14 40.9167C18.1799 40.9167 17.4014 41.6873 17.4014 42.6376Z" fill="url(#paint9_linear_301_844)"/>
</g>
<defs>
<linearGradient id="paint0_linear_301_844" x1="4.21613e-07" y1="22.1792" x2="32.5296" y2="22.1792" gradientUnits="userSpaceOnUse">
<stop stop-color="#52BDFF"/>
<stop offset="1" stop-color="white"/>
</linearGradient>
<linearGradient id="paint1_linear_301_844" x1="4.21613e-07" y1="22.1792" x2="32.5296" y2="22.1792" gradientUnits="userSpaceOnUse">
<stop stop-color="#52BDFF"/>
<stop offset="1" stop-color="white"/>
</linearGradient>
<linearGradient id="paint2_linear_301_844" x1="4.21613e-07" y1="22.1792" x2="32.5296" y2="22.1792" gradientUnits="userSpaceOnUse">
<stop stop-color="#52BDFF"/>
<stop offset="1" stop-color="white"/>
</linearGradient>
<linearGradient id="paint3_linear_301_844" x1="4.21613e-07" y1="22.1792" x2="32.5296" y2="22.1792" gradientUnits="userSpaceOnUse">
<stop stop-color="#52BDFF"/>
<stop offset="1" stop-color="white"/>
</linearGradient>
<linearGradient id="paint4_linear_301_844" x1="4.21613e-07" y1="22.1792" x2="32.5296" y2="22.1792" gradientUnits="userSpaceOnUse">
<stop stop-color="#52BDFF"/>
<stop offset="1" stop-color="white"/>
</linearGradient>
<linearGradient id="paint5_linear_301_844" x1="4.21613e-07" y1="22.1792" x2="32.5296" y2="22.1792" gradientUnits="userSpaceOnUse">
<stop stop-color="#52BDFF"/>
<stop offset="1" stop-color="white"/>
</linearGradient>
<linearGradient id="paint6_linear_301_844" x1="4.21613e-07" y1="22.1792" x2="32.5296" y2="22.1792" gradientUnits="userSpaceOnUse">
<stop stop-color="#52BDFF"/>
<stop offset="1" stop-color="white"/>
</linearGradient>
<linearGradient id="paint7_linear_301_844" x1="4.21613e-07" y1="22.1792" x2="32.5296" y2="22.1792" gradientUnits="userSpaceOnUse">
<stop stop-color="#52BDFF"/>
<stop offset="1" stop-color="white"/>
</linearGradient>
<linearGradient id="paint8_linear_301_844" x1="4.21613e-07" y1="22.1792" x2="32.5296" y2="22.1792" gradientUnits="userSpaceOnUse">
<stop stop-color="#52BDFF"/>
<stop offset="1" stop-color="white"/>
</linearGradient>
<linearGradient id="paint9_linear_301_844" x1="4.21613e-07" y1="22.1792" x2="32.5296" y2="22.1792" gradientUnits="userSpaceOnUse">
<stop stop-color="#52BDFF"/>
<stop offset="1" stop-color="white"/>
</linearGradient>
<clipPath id="clip0_301_844">
<rect width="32.5296" height="44.3585" fill="white" transform="matrix(-1 -2.18557e-08 -2.18557e-08 1 32.5296 0)"/>
</clipPath>
</defs>
</svg>
